<svg width="1280" height="720" xmlns="http://www.w3.org/2000/svg" xmlns:xlink="http://www.w3.org/1999/xlink" overflow="hidden"><defs><filter id="fx0" x="-10%" y="-10%" width="120%" height="120%" filterUnits="userSpaceOnUse" primitiveUnits="userSpaceOnUse"><feComponentTransfer color-interpolation-filters="sRGB"><feFuncR type="discrete" tableValues="0 0"/><feFuncG type="discrete" tableValues="0 0"/><feFuncB type="discrete" tableValues="0 0"/><feFuncA type="linear" slope="1" intercept="0"/></feComponentTransfer><feGaussianBlur stdDeviation="5.33333 5.34787"/></filter><filter id="fx1" x="-10%" y="-10%" width="120%" height="120%" filterUnits="userSpaceOnUse" primitiveUnits="userSpaceOnUse"><feComponentTransfer color-interpolation-filters="sRGB"><feFuncR type="discrete" tableValues="0 0"/><feFuncG type="discrete" tableValues="0 0"/><feFuncB type="discrete" tableValues="0 0"/><feFuncA type="linear" slope="1" intercept="0"/></feComponentTransfer><feGaussianBlur stdDeviation="5.34925 5.34787"/></filter><filter id="fx2" x="-10%" y="-10%" width="120%" height="120%" filterUnits="userSpaceOnUse" primitiveUnits="userSpaceOnUse"><feComponentTransfer color-interpolation-filters="sRGB"><feFuncR type="discrete" tableValues="0 0"/><feFuncG type="discrete" tableValues="0 0"/><feFuncB type="discrete" tableValues="0 0"/><feFuncA type="linear" slope="1" intercept="0"/></feComponentTransfer><feGaussianBlur stdDeviation="5.34756 5.34787"/></filter><filter id="fx3" x="-10%" y="-10%" width="120%" height="120%" filterUnits="userSpaceOnUse" primitiveUnits="userSpaceOnUse"><feComponentTransfer color-interpolation-filters="sRGB"><feFuncR type="discrete" tableValues="0 0"/><feFuncG type="discrete" tableValues="0 0"/><feFuncB type="discrete" tableValues="0 0"/><feFuncA type="linear" slope="1" intercept="0"/></feComponentTransfer><feGaussianBlur stdDeviation="5.34756 5.33333"/></filter><filter id="fx4" x="-10%" y="-10%" width="120%" height="120%" filterUnits="userSpaceOnUse" primitiveUnits="userSpaceOnUse"><feComponentTransfer color-interpolation-filters="sRGB"><feFuncR type="discrete" tableValues="0 0"/><feFuncG type="discrete" tableValues="0 0"/><feFuncB type="discrete" tableValues="0 0"/><feFuncA type="linear" slope="1" intercept="0"/></feComponentTransfer><feGaussianBlur stdDeviation="5.33333 5.33333"/></filter><filter id="fx5" x="-10%" y="-10%" width="120%" height="120%" filterUnits="userSpaceOnUse" primitiveUnits="userSpaceOnUse"><feComponentTransfer color-interpolation-filters="sRGB"><feFuncR type="discrete" tableValues="0 0"/><feFuncG type="discrete" tableValues="0 0"/><feFuncB type="discrete" tableValues="0 0"/><feFuncA type="linear" slope="1" intercept="0"/></feComponentTransfer><feGaussianBlur stdDeviation="5.33333 5.33333"/></filter><filter id="fx6" x="-10%" y="-10%" width="120%" height="120%" filterUnits="userSpaceOnUse" primitiveUnits="userSpaceOnUse"><feComponentTransfer color-interpolation-filters="sRGB"><feFuncR type="discrete" tableValues="0 0"/><feFuncG type="discrete" tableValues="0 0"/><feFuncB type="discrete" tableValues="0 0"/><feFuncA type="linear" slope="1" intercept="0"/></feComponentTransfer><feGaussianBlur stdDeviation="5.33333 5.33333"/></filter><filter id="fx7" x="-10%" y="-10%" width="120%" height="120%" filterUnits="userSpaceOnUse" primitiveUnits="userSpaceOnUse"><feComponentTransfer color-interpolation-filters="sRGB"><feFuncR type="discrete" tableValues="0 0"/><feFuncG type="discrete" tableValues="0 0"/><feFuncB type="discrete" tableValues="0 0"/><feFuncA type="linear" slope="1" intercept="0"/></feComponentTransfer><feGaussianBlur stdDeviation="5.34925 5.33333"/></filter><filter id="fx8" x="-10%" y="-10%" width="120%" height="120%" filterUnits="userSpaceOnUse" primitiveUnits="userSpaceOnUse"><feComponentTransfer color-interpolation-filters="sRGB"><feFuncR type="discrete" tableValues="0 0"/><feFuncG type="discrete" tableValues="0 0"/><feFuncB type="discrete" tableValues="0 0"/><feFuncA type="linear" slope="1" intercept="0"/></feComponentTransfer><feGaussianBlur stdDeviation="5.34925 5.33333"/></filter><filter id="fx9" x="-10%" y="-10%" width="120%" height="120%" filterUnits="userSpaceOnUse" primitiveUnits="userSpaceOnUse"><feComponentTransfer color-interpolation-filters="sRGB"><feFuncR type="discrete" tableValues="0 0"/><feFuncG type="discrete" tableValues="0 0"/><feFuncB type="discrete" tableValues="0 0"/><feFuncA type="linear" slope="1" intercept="0"/></feComponentTransfer><feGaussianBlur stdDeviation="5.33333 5.33333"/></filter><clipPath id="clip10"><rect x="0" y="0" width="1280" height="720"/></clipPath><linearGradient x1="449.432" y1="-163.58" x2="830.568" y2="883.58" gradientUnits="userSpaceOnUse" spreadMethod="reflect" id="fill11"><stop offset="0" stop-color="#C00000"/><stop offset="0.23" stop-color="#C00000"/><stop offset="0.79"/><stop offset="1"/></linearGradient><clipPath id="clip12"><path d="M372 131 372 430 640 430 640 131ZM1.90735e-05 1.07288e-05 1280 1.07288e-05 1280 720 1.90735e-05 720Z" fill-rule="evenodd" clip-rule="evenodd"/></clipPath><linearGradient x1="376.114" y1="125.708" x2="635.885" y2="435.292" gradientUnits="userSpaceOnUse" spreadMethod="reflect" id="stroke13"><stop offset="0" stop-color="#FFFFFF"/><stop offset="0.42" stop-color="#404040"/><stop offset="1" stop-color="#404040"/></linearGradient><clipPath id="clip14"><path d="M663 131 663 430 930 430 930 131ZM1.90735e-05 1.07288e-05 1280 1.07288e-05 1280 720 1.90735e-05 720Z" fill-rule="evenodd" clip-rule="evenodd"/></clipPath><clipPath id="clip15"><rect x="0" y="0" width="168" height="184"/></clipPath><linearGradient x1="666.821" y1="125.955" x2="926.179" y2="435.045" gradientUnits="userSpaceOnUse" spreadMethod="reflect" id="stroke16"><stop offset="0" stop-color="#FFFFFF"/><stop offset="0.42" stop-color="#404040"/><stop offset="1" stop-color="#404040"/></linearGradient><clipPath id="clip17"><path d="M960 131 960 430 1267 430 1267 131ZM1.90735e-05 1.07288e-05 1280 1.07288e-05 1280 720 1.90735e-05 720Z" fill-rule="evenodd" clip-rule="evenodd"/></clipPath><clipPath id="clip18"><rect x="0" y="0" width="188" height="184"/></clipPath><linearGradient x1="975.558" y1="116.107" x2="1251.44" y2="444.893" gradientUnits="userSpaceOnUse" spreadMethod="reflect" id="stroke19"><stop offset="0" stop-color="#FFFFFF"/><stop offset="0.42" stop-color="#404040"/><stop offset="1" stop-color="#404040"/></linearGradient><clipPath id="clip20"><path d="M960 447 960 711 1267 711 1267 447ZM1.90735e-05 1.07288e-05 1280 1.07288e-05 1280 720 1.90735e-05 720Z" fill-rule="evenodd" clip-rule="evenodd"/></clipPath><clipPath id="clip21"><rect x="0" y="0" width="188" height="166"/></clipPath><linearGradient x1="984.175" y1="424.876" x2="1242.83" y2="733.124" gradientUnits="userSpaceOnUse" spreadMethod="reflect" id="stroke22"><stop offset="0" stop-color="#FFFFFF"/><stop offset="0.42" stop-color="#404040"/><stop offset="1" stop-color="#404040"/></linearGradient><clipPath id="clip23"><path d="M516 447 516 711 930 711 930 447ZM1.90735e-05 1.07288e-05 1280 1.07288e-05 1280 720 1.90735e-05 720Z" fill-rule="evenodd" clip-rule="evenodd"/></clipPath><linearGradient x1="571.57" y1="398.532" x2="874.43" y2="759.468" gradientUnits="userSpaceOnUse" spreadMethod="reflect" id="stroke24"><stop offset="0" stop-color="#FFFFFF"/><stop offset="0.42" stop-color="#404040"/><stop offset="1" stop-color="#404040"/></linearGradient><clipPath id="clip25"><path d="M113 447 113 711 479 711 479 447ZM1.90735e-05 1.07288e-05 1280 1.07288e-05 1280 720 1.90735e-05 720Z" fill-rule="evenodd" clip-rule="evenodd"/></clipPath><linearGradient x1="154.486" y1="410.35" x2="437.514" y2="747.65" gradientUnits="userSpaceOnUse" spreadMethod="reflect" id="stroke26"><stop offset="0" stop-color="#FFFFFF"/><stop offset="0.42" stop-color="#404040"/><stop offset="1" stop-color="#404040"/></linearGradient><clipPath id="clip27"><path d="M389 18 389 100 657 100 657 18ZM1.90735e-05 1.07288e-05 1280 1.07288e-05 1280 720 1.90735e-05 720Z" fill-rule="evenodd" clip-rule="evenodd"/></clipPath><linearGradient x1="446.54" y1="-32.1211" x2="599.46" y2="150.121" gradientUnits="userSpaceOnUse" spreadMethod="reflect" id="stroke28"><stop offset="0" stop-color="#FFFFFF"/><stop offset="0.42" stop-color="#404040"/><stop offset="1" stop-color="#404040"/></linearGradient><clipPath id="clip29"><path d="M684 20 684 102 951 102 951 20ZM1.90735e-05 1.07288e-05 1280 1.07288e-05 1280 720 1.90735e-05 720Z" fill-rule="evenodd" clip-rule="evenodd"/></clipPath><clipPath id="clip30"><rect x="0" y="0" width="168" height="75"/></clipPath><linearGradient x1="741.247" y1="-29.8749" x2="893.753" y2="151.875" gradientUnits="userSpaceOnUse" spreadMethod="reflect" id="stroke31"><stop offset="0" stop-color="#FFFFFF"/><stop offset="0.42" stop-color="#404040"/><stop offset="1" stop-color="#404040"/></linearGradient><clipPath id="clip32"><path d="M978 17 978 99 1245 99 1245 17ZM1.90735e-05 1.07288e-05 1280 1.07288e-05 1280 720 1.90735e-05 720Z" fill-rule="evenodd" clip-rule="evenodd"/></clipPath><linearGradient x1="1035.25" y1="-32.8749" x2="1187.75" y2="148.875" gradientUnits="userSpaceOnUse" spreadMethod="reflect" id="stroke33"><stop offset="0" stop-color="#FFFFFF"/><stop offset="0.42" stop-color="#404040"/><stop offset="1" stop-color="#404040"/></linearGradient><clipPath id="clip34"><path d="M95 17 95 99 363 99 363 17ZM1.90735e-05 1.07288e-05 1280 1.07288e-05 1280 720 1.90735e-05 720Z" fill-rule="evenodd" clip-rule="evenodd"/></clipPath><linearGradient x1="152.54" y1="-33.1211" x2="305.46" y2="149.121" gradientUnits="userSpaceOnUse" spreadMethod="reflect" id="stroke35"><stop offset="0" stop-color="#FFFFFF"/><stop offset="0.42" stop-color="#404040"/><stop offset="1" stop-color="#404040"/></linearGradient></defs><g clip-path="url(#clip10)"><rect x="0" y="0" width="1280" height="720" fill="url(#fill11)"/><g clip-path="url(#clip12)"><g filter="url(#fx0)" transform="matrix(2 0 0 1.99457 342 101)"><g><rect x="16.8856" y="16.9316" width="134" height="149.907" stroke="#FF0000" stroke-miterlimit="8" fill="#404040"/></g></g></g><rect x="372" y="131" width="268" height="299" stroke="url(#stroke13)" stroke-width="2" stroke-miterlimit="8" fill="#404040"/><g clip-path="url(#clip14)"><g filter="url(#fx1)" transform="matrix(1.99405 0 0 1.99457 633 101)"><g clip-path="url(#clip15)"><rect x="16.936" y="16.9316" width="133.898" height="149.907" stroke="#FF0000" stroke-miterlimit="8" fill="#404040"/></g></g></g><rect x="663" y="131" width="267" height="299" stroke="url(#stroke16)" stroke-width="2" stroke-miterlimit="8" fill="#404040"/><g clip-path="url(#clip17)"><g filter="url(#fx2)" transform="matrix(1.99468 0 0 1.99457 930 101)"><g clip-path="url(#clip18)"><rect x="16.9307" y="16.9316" width="153.909" height="149.907" stroke="#FF0000" stroke-miterlimit="8" fill="#404040"/></g></g></g><rect x="960" y="131" width="307" height="299" stroke="url(#stroke19)" stroke-width="2" stroke-miterlimit="8" fill="#404040"/><g clip-path="url(#clip20)"><g filter="url(#fx3)" transform="matrix(1.99468 0 0 2 930 417)"><g clip-path="url(#clip21)"><rect x="16.9306" y="16.8856" width="153.909" height="132" stroke="#FF0000" stroke-miterlimit="8" fill="#404040"/></g></g></g><rect x="960" y="447" width="307" height="264" stroke="url(#stroke22)" stroke-width="2" stroke-miterlimit="8" fill="#404040"/><g clip-path="url(#clip23)"><g filter="url(#fx4)" transform="matrix(2 0 0 2 486 417)"><g><rect x="16.8856" y="16.8856" width="207" height="132" stroke="#FF0000" stroke-miterlimit="8" fill="#404040"/></g></g></g><rect x="516" y="447" width="414" height="264" stroke="url(#stroke24)" stroke-width="2" stroke-miterlimit="8" fill="#404040"/><g clip-path="url(#clip25)"><g filter="url(#fx5)" transform="matrix(2 0 0 2 83 417)"><g><rect x="16.8856" y="16.8856" width="183" height="132" stroke="#FF0000" stroke-miterlimit="8" fill="#404040"/></g></g></g><rect x="113" y="447" width="366" height="264" stroke="url(#stroke26)" stroke-width="2" stroke-miterlimit="8" fill="#404040"/><g clip-path="url(#clip27)"><g filter="url(#fx6)" transform="matrix(2 0 0 2 359 -12)"><g><rect x="16.8856" y="16.8856" width="134" height="41" stroke="#FF0000" stroke-miterlimit="8" fill="#404040"/></g></g></g><rect x="389" y="18" width="268" height="82" stroke="url(#stroke28)" stroke-width="2" stroke-miterlimit="8" fill="#404040"/><g clip-path="url(#clip29)"><g filter="url(#fx7)" transform="matrix(1.99405 0 0 2 654 -10)"><g clip-path="url(#clip30)"><rect x="16.9361" y="16.8856" width="133.899" height="41" stroke="#FF0000" stroke-miterlimit="8" fill="#404040"/></g></g></g><rect x="684" y="20" width="267" height="82" stroke="url(#stroke31)" stroke-width="2" stroke-miterlimit="8" fill="#404040"/><g clip-path="url(#clip32)"><g filter="url(#fx8)" transform="matrix(1.99405 0 0 2 948 -13)"><g transform="translate(-5.68434e-14 0)"><rect x="16.9361" y="16.8856" width="133.899" height="41" stroke="#FF0000" stroke-miterlimit="8" fill="#404040"/></g></g></g><rect x="978" y="17" width="267" height="82" stroke="url(#stroke33)" stroke-width="2" stroke-miterlimit="8" fill="#404040"/><g clip-path="url(#clip34)"><g filter="url(#fx9)" transform="matrix(2 0 0 2 65 -13)"><g><rect x="16.8856" y="16.8856" width="134" height="41" stroke="#FF0000" stroke-miterlimit="8" fill="#404040"/></g></g></g><rect x="95" y="17" width="268" height="82" stroke="url(#stroke35)" stroke-width="2" stroke-miterlimit="8" fill="#404040"/><path d="M234.5 207.5 234.5 378.5 182.5 430.5 130.5 378.5 130.5 207.5Z" stroke="#172C51" stroke-width="1.33333" stroke-miterlimit="8" fill="#007382" fill-rule="evenodd"/><path d="M360 207 360 377.5 307.5 430 255 377.5 255 207Z" fill="#007382" fill-rule="evenodd"/><path d="M125.5 135.125C163 123.042 200.5 147.208 238 135.125 275.5 123.042 313 147.208 350.5 135.125L350.5 185.875C313 197.958 275.5 173.792 238 185.875 200.5 197.958 163 173.792 125.5 185.875Z" stroke="#C00000" stroke-width="1.33333" stroke-miterlimit="8" fill="#C3B9BE" fill-rule="evenodd"/><path d="M185.638 144.494 224.791 144.494 224.791 173.494 185.638 173.494Z" fill="#007382" fill-rule="evenodd"/><text fill="#FFFFFF" font-family="Calibri,Calibri_MSFontService,sans-serif" font-weight="400" font-size="24" transform="translate(185.638 167)">TOP</text><text fill="#007382" font-family="Calibri,Calibri_MSFontService,sans-serif" font-weight="400" font-size="24" transform="translate(230.291 167)">CITIES</text><path d="M226.5 215.5 226.5 375.5 182.5 419.5 138.5 375.5 138.5 215.5Z" stroke="#FEBB05" stroke-width="3" stroke-miterlimit="8" stroke-dasharray="3 3" fill="#007382" fill-rule="evenodd"/><path d="M351.5 215.5 351.5 375.5 307.5 419.5 263.5 375.5 263.5 215.5Z" stroke="#FEBB05" stroke-width="3" stroke-miterlimit="8" stroke-dasharray="3 3" fill="#007382" fill-rule="evenodd"/><g><g><g><path d="M29.6156 18.8906C28.1938 20.3531 26.8531 21.2875 23.9281 21.6125 24.7 20.8406 25.5938 20.0688 26.3656 19.1344 26.6906 18.7688 27.3 17.9563 27.3 17.9156 27.9906 16.7781 28.3969 15.4781 28.3969 14.0562L28.3969 8.775 31.2406 8.775 31.2406 14.95C31.2812 15.0312 31.3625 17.0625 29.6156 18.8906ZM9.425 18.8906C7.6375 17.0625 7.71875 15.0312 7.71875 14.95L7.71875 8.73438 10.5625 8.73438 10.5625 14.0156C10.5625 15.4375 10.9688 16.7375 11.6594 17.875 11.6594 17.9156 12.2688 18.7688 12.5938 19.0938 13.4062 20.0281 14.2594 20.8 15.0312 21.5719 12.1875 21.2469 10.8063 20.3125 9.425 18.8906ZM33.7188 14.8281 33.7188 6.29688 28.4375 6.29688 28.4375 3.45312 19.5 3.45312 10.5625 3.45312 10.5625 6.29688 5.28125 6.29688 5.28125 14.7875C5.28125 15.1938 5.28125 17.9969 7.59688 20.475 9.83125 22.8313 12.5531 24.05 17.3062 24.1313 17.6719 24.7406 17.875 25.4312 17.875 26.1625L17.875 31.4438 15.8438 31.4438C14.95 31.4438 14.2188 32.175 14.2188 33.0688L12.1875 33.0688C11.2937 33.0688 10.5625 33.8 10.5625 34.6938L10.5625 35.5063 28.4375 35.5063 28.4375 34.6938C28.4375 33.8 27.7062 33.0688 26.8125 33.0688L24.7812 33.0688C24.7812 32.175 24.05 31.4438 23.1562 31.4438L21.125 31.4438 21.125 26.2031C21.125 25.4719 21.3281 24.7812 21.6938 24.1719 26.4469 24.0906 29.1688 22.8313 31.4031 20.5156 33.7188 18.0781 33.7188 15.2344 33.7188 14.8281Z" fill="#FFC000" transform="matrix(1 0 0 1.02564 130 138)"/></g></g></g><g><g><g><path d="M29.6156 18.8906C28.1938 20.3531 26.8531 21.2875 23.9281 21.6125 24.7 20.8406 25.5938 20.0688 26.3656 19.1344 26.6906 18.7688 27.3 17.9563 27.3 17.9156 27.9906 16.7781 28.3969 15.4781 28.3969 14.0562L28.3969 8.775 31.2406 8.775 31.2406 14.95C31.2812 15.0312 31.3625 17.0625 29.6156 18.8906ZM9.425 18.8906C7.6375 17.0625 7.71875 15.0312 7.71875 14.95L7.71875 8.73438 10.5625 8.73438 10.5625 14.0156C10.5625 15.4375 10.9688 16.7375 11.6594 17.875 11.6594 17.9156 12.2688 18.7688 12.5938 19.0938 13.4062 20.0281 14.2594 20.8 15.0312 21.5719 12.1875 21.2469 10.8063 20.3125 9.425 18.8906ZM33.7188 14.8281 33.7188 6.29688 28.4375 6.29688 28.4375 3.45312 19.5 3.45312 10.5625 3.45312 10.5625 6.29688 5.28125 6.29688 5.28125 14.7875C5.28125 15.1938 5.28125 17.9969 7.59688 20.475 9.83125 22.8313 12.5531 24.05 17.3062 24.1313 17.6719 24.7406 17.875 25.4312 17.875 26.1625L17.875 31.4438 15.8438 31.4438C14.95 31.4438 14.2188 32.175 14.2188 33.0688L12.1875 33.0688C11.2937 33.0688 10.5625 33.8 10.5625 34.6938L10.5625 35.5063 28.4375 35.5063 28.4375 34.6938C28.4375 33.8 27.7062 33.0688 26.8125 33.0688L24.7812 33.0688C24.7812 32.175 24.05 31.4438 23.1562 31.4438L21.125 31.4438 21.125 26.2031C21.125 25.4719 21.3281 24.7812 21.6938 24.1719 26.4469 24.0906 29.1688 22.8313 31.4031 20.5156 33.7188 18.0781 33.7188 15.2344 33.7188 14.8281Z" fill="#FFC000" transform="matrix(1 0 0 1.02564 305 140)"/></g></g></g><path d="M130 237 115 237 130 207Z" fill="#007382" fill-rule="evenodd" fill-opacity="0.670588"/><path d="M256 236 241 236 256 206Z" fill="#007382" fill-rule="evenodd" fill-opacity="0.670588"/><text fill="#FEBB05" font-family="Calibri,Calibri_MSFontService,sans-serif" font-weight="700" font-size="17.3333" transform="translate(167.243 235)">TOP</text><text fill="#FEBB05" font-family="Calibri,Calibri_MSFontService,sans-serif" font-weight="700" font-size="17.3333" transform="translate(155.843 298)">PROFIT</text><text fill="#FEBB05" font-family="Calibri,Calibri_MSFontService,sans-serif" font-weight="700" font-size="17.3333" transform="translate(292.175 235)">TOP</text><text fill="#FEBB05" font-family="Calibri,Calibri_MSFontService,sans-serif" font-weight="700" font-size="17.3333" transform="translate(279.195 298)">ORDERS</text><g><g><g><path d="M180.5 388.806C177.724 388.806 175.46 391.07 175.46 393.846 175.46 396.622 177.724 398.928 180.5 398.928 183.276 398.928 185.54 396.665 185.54 393.889 185.54 391.112 183.276 388.806 180.5 388.806" fill="#FEBB05"/><path d="M180.5 384.493C175.332 384.493 171.104 388.721 171.104 393.889 171.104 399.056 175.332 403.284 180.5 403.284 185.668 403.284 189.896 399.056 189.896 393.889 189.896 388.721 185.668 384.493 180.5 384.493M180.5 400.722C176.742 400.722 173.667 397.647 173.667 393.889 173.667 390.13 176.742 387.055 180.5 387.055 184.258 387.055 187.333 390.13 187.333 393.889 187.333 397.647 184.258 400.722 180.5 400.722" fill="#FEBB05"/><path d="M182.806 382.998C184.515 383.382 186.095 384.108 187.461 385.176L192.715 373.303 190.323 369.716 188.785 369.716 185.454 377.019 182.806 382.998Z" fill="#FEBB05"/><path d="M178.194 382.998 175.546 377.019 172.215 369.716 170.677 369.716 168.328 373.303 173.581 385.176C174.905 384.151 176.485 383.382 178.194 382.998" fill="#FEBB05"/><path d="M184.557 374.883 186.906 369.758 174.094 369.758 176.443 374.883Z" fill="#FEBB05"/></g></g></g><g><g><g><path d="M307.5 388.806C304.724 388.806 302.46 391.07 302.46 393.846 302.46 396.622 304.724 398.928 307.5 398.928 310.276 398.928 312.54 396.665 312.54 393.889 312.54 391.112 310.276 388.806 307.5 388.806" fill="#FEBB05"/><path d="M307.5 384.493C302.332 384.493 298.104 388.721 298.104 393.889 298.104 399.056 302.332 403.284 307.5 403.284 312.668 403.284 316.896 399.056 316.896 393.889 316.896 388.721 312.668 384.493 307.5 384.493M307.5 400.722C303.742 400.722 300.667 397.647 300.667 393.889 300.667 390.13 303.742 387.055 307.5 387.055 311.258 387.055 314.333 390.13 314.333 393.889 314.333 397.647 311.258 400.722 307.5 400.722" fill="#FEBB05"/><path d="M309.806 382.998C311.515 383.382 313.095 384.108 314.461 385.176L319.715 373.303 317.323 369.716 315.785 369.716 312.454 377.019 309.806 382.998Z" fill="#FEBB05"/><path d="M305.194 382.998 302.546 377.019 299.215 369.716 297.677 369.716 295.328 373.303 300.581 385.176C301.905 384.151 303.485 383.382 305.194 382.998" fill="#FEBB05"/><path d="M311.557 374.883 313.906 369.758 301.094 369.758 303.443 374.883Z" fill="#FEBB05"/></g></g></g><path d="M102 449C102 440.716 108.492 434 116.5 434 124.508 434 131 440.716 131 449 131 457.284 124.508 464 116.5 464 108.492 464 102 457.284 102 449Z" fill="#FFFFFF" fill-rule="evenodd"/><path d="M500 446.5C500 438.492 506.492 432 514.5 432 522.508 432 529 438.492 529 446.5 529 454.508 522.508 461 514.5 461 506.492 461 500 454.508 500 446.5Z" fill="#FFFFFF" fill-rule="evenodd"/><g><g><g><path d="M505.625 435.938 503.938 435.938 503.938 455.062 523.062 455.062 523.062 453.375 505.625 453.375Z"/><path d="M521.403 447.441 518 444.038 516.312 445.725 513.5 442.913 511.812 444.6 507.903 440.691 506.722 441.872 511.812 446.962 513.5 445.275 516.312 448.087 518 446.4 520.222 448.622 518.562 450.281 523.062 450.281 523.062 445.781Z"/></g></g></g><path d="M947 447.5C947 439.492 953.492 433 961.5 433 969.508 433 976 439.492 976 447.5 976 455.508 969.508 462 961.5 462 953.492 462 947 455.508 947 447.5Z" fill="#FFFFFF" fill-rule="evenodd"/><g><g><g><path d="M15 13.75C13.4375 13.75 12.1875 12.5 12.1875 10.9375 12.1875 9.375 13.4375 8.125 15 8.125 16.5625 8.125 17.8125 9.375 17.8125 10.9375 17.8125 12.5 16.5625 13.75 15 13.75ZM15 4.375C12.8438 4.375 10.8125 5.4375 9.59375 7.25 8.375 9.03125 8.125 11.3125 8.90625 13.3438L11.875 19.9062 14.4375 25.2812C14.5312 25.5 14.75 25.625 15 25.625 15.25 25.625 15.4688 25.5 15.5625 25.2812L18.125 19.9062 21.0938 13.3438C21.875 11.3125 21.625 9.03125 20.4062 7.25 19.1875 5.4375 17.1562 4.375 15 4.375Z" transform="matrix(1.03333 0 0 1 947 434)"/></g></g></g><text fill="#FFFFFF" font-family="Calibri,Calibri_MSFontService,sans-serif" font-weight="700" font-size="17.3333" transform="translate(129.957 39)">SELECT STATE</text><text fill="#FEBB05" font-family="Calibri,Calibri_MSFontService,sans-serif" font-weight="700" font-size="17.3333" transform="translate(403.564 39)">TOTAL PROFIT</text><text fill="#FEBB05" font-family="Calibri,Calibri_MSFontService,sans-serif" font-weight="700" font-size="17.3333" transform="translate(697.303 39)">NUMBER ORDERS</text><text fill="#FEBB05" font-family="Calibri,Calibri_MSFontService,sans-serif" font-weight="700" font-size="17.3333" transform="translate(989.96 37)">MARGE</text><g><g><g><path d="M44.7917 36.9792 43.2292 38.5417 7.29167 38.5417 5.20833 36.4583 5.20833 26.0417 7.29167 23.9583 43.2292 23.9583 44.7917 25.5208 44.7917 36.9792ZM2.08333 20.8333 2.08333 41.6667 47.9167 41.6667 47.9167 20.8333 2.08333 20.8333Z" fill="#FEBB05" transform="matrix(1.26 0 0 1 583 33)"/><path d="M29.1667 31.25C29.1667 34.1265 27.3012 36.4583 25 36.4583 22.6988 36.4583 20.8333 34.1265 20.8333 31.25 20.8333 28.3735 22.6988 26.0417 25 26.0417 27.3012 26.0417 29.1667 28.3735 29.1667 31.25Z" fill="#FEBB05" transform="matrix(1.26 0 0 1 583 33)"/><path d="M13.5417 31.25C13.5417 32.1129 12.8421 32.8125 11.9792 32.8125 11.1162 32.8125 10.4167 32.1129 10.4167 31.25 10.4167 30.3871 11.1162 29.6875 11.9792 29.6875 12.8421 29.6875 13.5417 30.3871 13.5417 31.25Z" fill="#FEBB05" transform="matrix(1.26 0 0 1 583 33)"/><path d="M39.5833 31.25C39.5833 32.1129 38.8838 32.8125 38.0208 32.8125 37.1579 32.8125 36.4583 32.1129 36.4583 31.25 36.4583 30.3871 37.1579 29.6875 38.0208 29.6875 38.8838 29.6875 39.5833 30.3871 39.5833 31.25Z" fill="#FEBB05" transform="matrix(1.26 0 0 1 583 33)"/><path d="M34.3229 10.7812 35.1042 12.7604 38.2292 12.1354 36.0417 6.66667 8.02083 18.125 24.0625 14.9479Z" fill="#FEBB05" transform="matrix(1.26 0 0 1 583 33)"/><path d="M31.6146 18.75 39.8438 17.1354 40.2083 18.75 43.3854 18.75 42.3438 13.4375 15.625 18.75Z" fill="#FEBB05" transform="matrix(1.26 0 0 1 583 33)"/></g></g></g><g><g><g><path d="M16.1458 16.1458 10.4167 16.1458 10.4167 12.5 16.1458 12.5 16.1458 16.1458ZM23.9583 12.5 23.9583 16.1458 18.2292 16.1458 18.2292 12.5 23.9583 12.5ZM31.7708 12.5 31.7708 16.1458 26.0417 16.1458 26.0417 12.5 31.7708 12.5ZM39.5833 12.5 39.5833 16.1458 33.8542 16.1458 33.8542 12.5 39.5833 12.5ZM39.5833 21.875 33.8542 21.875 33.8542 18.2292 39.5833 18.2292 39.5833 21.875ZM39.5833 26.3021 33.8542 26.8229 33.8542 23.9583 39.5833 23.9583 39.5833 26.3021ZM16.1458 23.9583 16.1458 28.3854 10.4167 28.9062 10.4167 23.9583 16.1458 23.9583ZM16.1458 21.875 10.4167 21.875 10.4167 18.2292 16.1458 18.2292 16.1458 21.875ZM23.9583 21.875 18.2292 21.875 18.2292 18.2292 23.9583 18.2292 23.9583 21.875ZM26.0417 21.875 26.0417 18.2292 31.7708 18.2292 31.7708 21.875 26.0417 21.875ZM23.9583 27.7083 18.2292 28.2292 18.2292 23.9583 23.9583 23.9583 23.9583 27.7083ZM26.0417 23.9583 31.7708 23.9583 31.7708 26.9792 26.0417 27.5 26.0417 23.9583ZM42.7083 29.1667 42.7083 9.375 10.4167 9.375 10.4167 8.85417C10.4167 6.25 8.33333 4.16667 5.72917 4.16667 4.84375 4.16667 4.16667 4.84375 4.16667 5.72917 4.16667 6.61458 4.84375 7.29167 5.72917 7.29167 6.61458 7.29167 7.29167 7.96875 7.29167 8.85417L7.29167 34.8958C7.29167 37.5 9.375 39.5833 11.9792 39.5833L13.5417 39.5833 36.4583 39.5833 41.1458 39.5833C42.0312 39.5833 42.7083 38.9062 42.7083 38.0208 42.7083 37.1354 42.0312 36.4583 41.1458 36.4583L11.9792 36.4583C11.0937 36.4583 10.4167 35.7812 10.4167 34.8958L10.4167 32.0312 42.7083 29.1667Z" fill="#FEBB05" transform="matrix(1 0 0 1.02 892 36)"/><path d="M16.6667 42.7083C16.6667 44.4342 15.2676 45.8333 13.5417 45.8333 11.8158 45.8333 10.4167 44.4342 10.4167 42.7083 10.4167 40.9824 11.8158 39.5833 13.5417 39.5833 15.2676 39.5833 16.6667 40.9824 16.6667 42.7083Z" fill="#FEBB05" transform="matrix(1 0 0 1.02 892 36)"/><path d="M39.5833 42.7083C39.5833 44.4342 38.1842 45.8333 36.4583 45.8333 34.7324 45.8333 33.3333 44.4342 33.3333 42.7083 33.3333 40.9824 34.7324 39.5833 36.4583 39.5833 38.1842 39.5833 39.5833 40.9824 39.5833 42.7083Z" fill="#FEBB05" transform="matrix(1 0 0 1.02 892 36)"/></g></g></g><g><g><g><path d="M1228.96 60.5417C1228.69 60.5417 1228.47 60.3792 1228.31 60.2167 1228.04 59.9458 1227.88 59.4583 1227.88 58.9708 1227.88 58.2667 1228.36 57.725 1228.8 57.4L1228.85 57.3458C1229.88 57.8875 1230.04 58.4292 1230.04 58.9167 1230.04 59.7833 1229.55 60.5417 1228.96 60.5417ZM1214.22 49.8708C1214.06 50.25 1213.63 50.5208 1213.25 50.5208 1213.09 50.5208 1212.93 50.4667 1212.82 50.4125 1211.08 49.6 1209.19 49.1667 1207.4 49.1667 1206.37 49.1667 1205.34 49.3292 1204.31 49.6 1203.72 49.7625 1203.12 49.4375 1202.96 48.8417 1202.8 48.2458 1203.12 47.65 1203.72 47.4875 1204.91 47.1625 1206.15 47 1207.35 47 1209.4 47 1211.62 47.4875 1213.63 48.4083 1214.22 48.6792 1214.5 49.3292 1214.22 49.8708ZM1232.91 54.0417C1231.56 53.825 1229.88 54.2042 1228.53 54.9625 1227.28 54.6917 1225.38 54.6917 1223.65 55.2875 1221.1 49.2208 1214.01 44.8333 1207.29 44.8333 1204.96 44.8333 1202.63 45.375 1200.52 46.35L1193.86 43.2083C1193.43 42.9917 1192.94 43.425 1193.1 43.8583L1195.27 49.9792C1193.97 51.3333 1192.88 52.9042 1192.12 54.6375 1192.02 54.9625 1191.75 55.1792 1191.37 55.2875L1189.42 55.775C1188.44 55.9917 1187.79 56.8583 1187.79 57.8875L1187.79 62.1125C1187.79 63.0875 1188.44 63.9542 1189.42 64.225L1191.42 64.7125C1191.75 64.8208 1192.02 65.0375 1192.18 65.3625 1193.1 67.475 1194.51 69.3708 1196.24 70.9417 1196.4 71.1042 1196.57 71.3208 1196.62 71.5917L1197.43 76.5208C1197.54 77.0625 1197.97 77.4417 1198.52 77.4417L1202.09 77.4417C1202.63 77.4417 1203.07 77.0625 1203.18 76.5208L1203.45 74.7875C1204.69 75.1125 1205.99 75.275 1207.35 75.275 1208.81 75.275 1210.32 75.0583 1211.73 74.6792L1212.06 76.5208C1212.17 77.0625 1212.6 77.4417 1213.14 77.4417L1216.72 77.4417C1217.26 77.4417 1217.69 77.0625 1217.8 76.5208L1218.61 71.5917C1218.67 71.3208 1218.78 71.1042 1218.99 70.9417 1222.3 68.0708 1224.62 64.2792 1224.62 60 1224.62 59.0792 1224.52 58.2125 1224.3 57.3458 1224.95 57.1292 1225.65 56.9667 1226.3 56.9667 1225.93 57.5625 1225.71 58.2125 1225.71 58.9167 1225.65 60 1226.09 61.0292 1226.79 61.7875 1227.39 62.3833 1228.15 62.7625 1228.96 62.7625 1230.75 62.7625 1232.21 61.0833 1232.21 58.9708 1232.21 57.9417 1231.83 57.0208 1231.07 56.3167 1231.61 56.2083 1232.1 56.1542 1232.59 56.2083 1233.18 56.3167 1233.72 55.8833 1233.83 55.2875 1233.89 54.6917 1233.51 54.15 1232.91 54.0417Z" fill="#FEBB05"/></g></g></g><path d="M357 129.5C357 121.492 363.716 115 372 115 380.284 115 387 121.492 387 129.5 387 137.508 380.284 144 372 144 363.716 144 357 137.508 357 129.5Z" fill="#FFFFFF" fill-rule="evenodd"/><path d="M648 129.5C648 121.492 654.492 115 662.5 115 670.508 115 677 121.492 677 129.5 677 137.508 670.508 144 662.5 144 654.492 144 648 137.508 648 129.5Z" fill="#FFFFFF" fill-rule="evenodd"/><path d="M948 131C948 122.716 954.492 116 962.5 116 970.508 116 977 122.716 977 131 977 139.284 970.508 146 962.5 146 954.492 146 948 139.284 948 131Z" fill="#FFFFFF" fill-rule="evenodd"/><g><g><g><path d="M15 16.6875C12.9688 16.6875 11.3125 18.3438 11.3125 20.375 11.3125 22.4062 12.9688 24.0938 15 24.0938 17.0312 24.0938 18.6875 22.4375 18.6875 20.4062 18.6875 18.375 17.0312 16.6875 15 16.6875" fill="#0D0D0D" transform="matrix(1.03333 0 0 1 356 116)"/><path d="M15 13.5312C11.2188 13.5312 8.125 16.625 8.125 20.4062 8.125 24.1875 11.2188 27.2812 15 27.2812 18.7812 27.2812 21.875 24.1875 21.875 20.4062 21.875 16.625 18.7812 13.5312 15 13.5312M15 25.4062C12.25 25.4062 10 23.1562 10 20.4062 10 17.6562 12.25 15.4062 15 15.4062 17.75 15.4062 20 17.6562 20 20.4062 20 23.1562 17.75 25.4062 15 25.4062" fill="#0D0D0D" transform="matrix(1.03333 0 0 1 356 116)"/><path d="M16.6875 12.4375C17.9375 12.7188 19.0938 13.25 20.0938 14.0312L23.9375 5.34375 22.1875 2.71875 21.0625 2.71875 18.625 8.0625 16.6875 12.4375Z" fill="#0D0D0D" transform="matrix(1.03333 0 0 1 356 116)"/><path d="M13.3125 12.4375 11.375 8.0625 8.9375 2.71875 7.8125 2.71875 6.09375 5.34375 9.9375 14.0312C10.9062 13.2812 12.0625 12.7188 13.3125 12.4375" fill="#0D0D0D" transform="matrix(1.03333 0 0 1 356 116)"/><path d="M17.9688 6.5 19.6875 2.75 10.3125 2.75 12.0312 6.5Z" fill="#0D0D0D" transform="matrix(1.03333 0 0 1 356 116)"/></g></g></g><g><g><g><path d="M15 16.6875C12.9688 16.6875 11.3125 18.3438 11.3125 20.375 11.3125 22.4062 12.9688 24.0938 15 24.0938 17.0312 24.0938 18.6875 22.4375 18.6875 20.4062 18.6875 18.375 17.0312 16.6875 15 16.6875" fill="#0D0D0D" transform="matrix(1.03333 0 0 1 647 116)"/><path d="M15 13.5312C11.2188 13.5312 8.125 16.625 8.125 20.4062 8.125 24.1875 11.2188 27.2812 15 27.2812 18.7812 27.2812 21.875 24.1875 21.875 20.4062 21.875 16.625 18.7812 13.5312 15 13.5312M15 25.4062C12.25 25.4062 10 23.1562 10 20.4062 10 17.6562 12.25 15.4062 15 15.4062 17.75 15.4062 20 17.6562 20 20.4062 20 23.1562 17.75 25.4062 15 25.4062" fill="#0D0D0D" transform="matrix(1.03333 0 0 1 647 116)"/><path d="M16.6875 12.4375C17.9375 12.7188 19.0938 13.25 20.0938 14.0312L23.9375 5.34375 22.1875 2.71875 21.0625 2.71875 18.625 8.0625 16.6875 12.4375Z" fill="#0D0D0D" transform="matrix(1.03333 0 0 1 647 116)"/><path d="M13.3125 12.4375 11.375 8.0625 8.9375 2.71875 7.8125 2.71875 6.09375 5.34375 9.9375 14.0312C10.9062 13.2812 12.0625 12.7188 13.3125 12.4375" fill="#0D0D0D" transform="matrix(1.03333 0 0 1 647 116)"/><path d="M17.9688 6.5 19.6875 2.75 10.3125 2.75 12.0312 6.5Z" fill="#0D0D0D" transform="matrix(1.03333 0 0 1 647 116)"/></g></g></g><g><g><g><path d="M15 17.5C13.6193 17.5 12.5 16.3807 12.5 15 12.5 13.6193 13.6193 12.5 15 12.5 16.3807 12.5 17.5 13.6193 17.5 15 17.5 16.3807 16.3807 17.5 15 17.5ZM15 13.75C14.3097 13.75 13.75 14.3097 13.75 15 13.75 15.6903 14.3097 16.25 15 16.25 15.6903 16.25 16.25 15.6903 16.25 15 16.25 14.3097 15.6903 13.75 15 13.75Z" transform="matrix(1.03333 0 0 1 947 117)"/><path d="M25.9375 14.375C25.6098 8.82094 21.1791 4.39019 15.625 4.0625L15.625 2.1875 14.375 2.1875 14.375 4.0625C8.82094 4.39019 4.39019 8.82094 4.0625 14.375L2.1875 14.375 2.1875 15.625 4.0625 15.625C4.39019 21.1791 8.82094 25.6098 14.375 25.9375L14.375 27.8125 15.625 27.8125 15.625 25.9375C21.1791 25.6098 25.6098 21.1791 25.9375 15.625L27.8125 15.625 27.8125 14.375ZM21.3 15.625C20.9997 18.6261 18.6261 20.9997 15.625 21.3L15.625 18.75 14.375 18.75 14.375 21.3C11.3739 20.9997 9.00031 18.6261 8.7 15.625L11.25 15.625 11.25 14.375 8.7 14.375C9.00031 11.3739 11.3739 9.00031 14.375 8.7L14.375 11.25 15.625 11.25 15.625 8.7C18.6261 9.00031 20.9997 11.3739 21.3 14.375L18.75 14.375 18.75 15.625ZM14.375 5.9375 14.375 7.44688C10.6842 7.75688 7.75541 10.6843 7.44375 14.375L5.9375 14.375C6.25887 9.85491 9.85491 6.25887 14.375 5.9375ZM5.9375 15.625 7.44688 15.625C7.75688 19.3158 10.6843 22.2446 14.375 22.5562L14.375 24.0625C9.85491 23.7411 6.25887 20.1451 5.9375 15.625ZM15.625 24.0625 15.625 22.5562C19.3169 22.246 22.246 19.3169 22.5562 15.625L24.0625 15.625C23.7411 20.1451 20.1451 23.7411 15.625 24.0625ZM22.5562 14.375C22.246 10.6831 19.3169 7.75397 15.625 7.44375L15.625 5.9375C20.1451 6.25887 23.7411 9.85491 24.0625 14.375Z" transform="matrix(1.03333 0 0 1 947 117)"/></g></g></g><text fill="#FFFFFF" font-family="Calibri,Calibri_MSFontService,sans-serif" font-weight="700" font-size="14.6667" transform="translate(422.472 150)">TOP CUSTOMER BY PROFIT</text><text fill="#FFFFFF" font-family="Calibri,Calibri_MSFontService,sans-serif" font-weight="700" font-size="14.6667" transform="translate(708.749 149)">TOP CUSTOMER BY MARGE</text><text fill="#FFFFFF" font-family="Calibri,Calibri_MSFontService,sans-serif" font-weight="700" font-size="14.6667" transform="translate(1019.06 149)">STATE PERFORMANCE MATRIX</text><text fill="#FFFFFF" font-family="Calibri,Calibri_MSFontService,sans-serif" font-weight="700" font-size="14.6667" transform="translate(198.25 466)">PROFIT DISTRIBUTION BY STATE</text><text fill="#FFFFFF" font-family="Calibri,Calibri_MSFontService,sans-serif" font-weight="700" font-size="14.6667" transform="translate(610.967 465)">PROFITABILITY PER PURCHASE VOLUME</text><text fill="#FFFFFF" font-family="Calibri,Calibri_MSFontService,sans-serif" font-weight="700" font-size="14.6667" transform="translate(1025.62 466)">SALES REVENUE PER LOCATION</text><path d="M52 147 96 147 96 614C96 638.301 76.3005 658 52 658L8 658 8 191C8 166.699 27.6995 147 52 147Z" fill="#FFCCFF" fill-rule="evenodd" fill-opacity="0.45098"/><g><g><g><path d="M12.5625 20.4062C12.125 20.4062 11.7188 20.3125 11.3125 20.1562 10.6562 19.9062 10.0938 19.4375 9.6875 18.8438 9.65625 18.8438 9.59375 18.8125 9.5625 18.8125L5.8125 26.1875 8.96875 25.4688 10.5625 28.4375 14.4688 20.8125C14.0312 20.75 13.5938 20.5625 13.2188 20.3438 13 20.375 12.7812 20.4062 12.5625 20.4062Z" transform="matrix(1 0 0 1.03333 101 434)"/><path d="M19.0938 20C18.6562 20.1875 18.1875 20.2812 17.7188 20.2812 17.4688 20.2812 17.25 20.25 17 20.2188 16.5312 20.5312 16 20.75 15.4375 20.8125L19.5625 28.25 21.1875 25.5938 24.375 26.125 20.4062 19C20.0625 19.4375 19.625 19.7812 19.0938 20Z" transform="matrix(1 0 0 1.03333 101 434)"/><path d="M14.9062 16.125C11.9375 16.125 9.5 13.7188 9.5 10.7188 9.5 7.71875 11.9375 5.3125 14.9062 5.3125 17.875 5.3125 20.3125 7.71875 20.3125 10.7188 20.3125 13.7188 17.875 16.125 14.9062 16.125ZM24.125 10.7188C24.125 10.0312 23.8438 9.40625 23.375 8.96875 23.625 8.375 23.6562 7.6875 23.375 7.0625 23.125 6.5 22.6875 6.0625 22.1562 5.84375 22.125 5.28125 21.9062 4.71875 21.4688 4.28125 20.9688 3.78125 20.3438 3.5625 19.6875 3.59375 19.4688 3 19 2.5 18.3438 2.25 17.7812 2.03125 17.1562 2.03125 16.625 2.25 16.1875 1.875 15.6562 1.625 15.0312 1.625 14.3438 1.625 13.7188 1.90625 13.2812 2.375 12.6875 2.125 12 2.09375 11.375 2.375 10.8125 2.625 10.375 3.0625 10.1562 3.59375 9.59375 3.625 9.03125 3.84375 8.59375 4.28125 8.09375 4.78125 7.875 5.40625 7.90625 6.0625 7.3125 6.28125 6.8125 6.75 6.5625 7.40625 6.34375 7.96875 6.34375 8.59375 6.5625 9.125 6.1875 9.5625 5.9375 10.0938 5.9375 10.7188 5.9375 11.4062 6.21875 12.0312 6.6875 12.4688 6.4375 13.0625 6.40625 13.75 6.6875 14.375 6.9375 14.9375 7.375 15.375 7.90625 15.5938 7.9375 16.1562 8.15625 16.7188 8.59375 17.1562 9.09375 17.6562 9.71875 17.875 10.375 17.8438 10.5938 18.4375 11.0625 18.9375 11.7188 19.1875 12.2812 19.4062 12.9062 19.4062 13.4375 19.1875 13.875 19.5625 14.4062 19.8125 15.0312 19.8125 15.7188 19.8125 16.3438 19.5312 16.7812 19.0625 17.375 19.3125 18.0625 19.3438 18.6875 19.0625 19.25 18.8125 19.6875 18.375 19.9062 17.8438 20.4688 17.8125 21.0312 17.5938 21.4688 17.1562 21.9688 16.6562 22.1875 16.0312 22.1562 15.375 22.75 15.1562 23.25 14.6875 23.5 14.0312 23.7188 13.4688 23.7188 12.8438 23.5 12.3125 23.875 11.9062 24.125 11.3438 24.125 10.7188Z" transform="matrix(1 0 0 1.03333 101 434)"/></g></g></g><text fill="#FFFFFF" font-family="Calibri,Calibri_MSFontService,sans-serif" font-weight="400" font-size="26.6667" transform="matrix(-1.83697e-16 -1 1 -1.83697e-16 40.5005 639)">Customer &amp; Regional Performance Analysis</text><text fill="#FFFFFF" font-family="Calibri,Calibri_MSFontService,sans-serif" font-weight="400" font-size="26.6667" transform="matrix(-1.83697e-16 -1 1 -1.83697e-16 72.5005 639)">2018</text><text fill="#FFFFFF" font-family="Calibri,Calibri_MSFontService,sans-serif" font-weight="400" font-size="26.6667" transform="matrix(-1.83697e-16 -1 1 -1.83697e-16 72.5005 579)">-</text><text fill="#FFFFFF" font-family="Calibri,Calibri_MSFontService,sans-serif" font-weight="400" font-size="26.6667" transform="matrix(-1.83697e-16 -1 1 -1.83697e-16 72.5005 565)">2019</text></g></svg>