<svg width="1280" height="720" xmlns="http://www.w3.org/2000/svg" xmlns:xlink="http://www.w3.org/1999/xlink" overflow="hidden"><defs><filter id="fx0" x="-10%" y="-10%" width="120%" height="120%" filterUnits="userSpaceOnUse" primitiveUnits="userSpaceOnUse"><feComponentTransfer color-interpolation-filters="sRGB"><feFuncR type="discrete" tableValues="0 0"/><feFuncG type="discrete" tableValues="0 0"/><feFuncB type="discrete" tableValues="0 0"/><feFuncA type="linear" slope="1" intercept="0"/></feComponentTransfer><feGaussianBlur stdDeviation="5.33333 5.33333"/></filter><filter id="fx1" x="-10%" y="-10%" width="120%" height="120%" filterUnits="userSpaceOnUse" primitiveUnits="userSpaceOnUse"><feComponentTransfer color-interpolation-filters="sRGB"><feFuncR type="discrete" tableValues="0 0"/><feFuncG type="discrete" tableValues="0 0"/><feFuncB type="discrete" tableValues="0 0"/><feFuncA type="linear" slope="1" intercept="0"/></feComponentTransfer><feGaussianBlur stdDeviation="5.33333 5.33333"/></filter><filter id="fx2" x="-10%" y="-10%" width="120%" height="120%" filterUnits="userSpaceOnUse" primitiveUnits="userSpaceOnUse"><feComponentTransfer color-interpolation-filters="sRGB"><feFuncR type="discrete" tableValues="0 0"/><feFuncG type="discrete" tableValues="0 0"/><feFuncB type="discrete" tableValues="0 0"/><feFuncA type="linear" slope="1" intercept="0"/></feComponentTransfer><feGaussianBlur stdDeviation="5.33333 5.33333"/></filter><filter id="fx3" x="-10%" y="-10%" width="120%" height="120%" filterUnits="userSpaceOnUse" primitiveUnits="userSpaceOnUse"><feComponentTransfer color-interpolation-filters="sRGB"><feFuncR type="discrete" tableValues="0 0"/><feFuncG type="discrete" tableValues="0 0"/><feFuncB type="discrete" tableValues="0 0"/><feFuncA type="linear" slope="1" intercept="0"/></feComponentTransfer><feGaussianBlur stdDeviation="5.33333 5.33333"/></filter><filter id="fx4" x="-10%" y="-10%" width="120%" height="120%" filterUnits="userSpaceOnUse" primitiveUnits="userSpaceOnUse"><feComponentTransfer color-interpolation-filters="sRGB"><feFuncR type="discrete" tableValues="0 0"/><feFuncG type="discrete" tableValues="0 0"/><feFuncB type="discrete" tableValues="0 0"/><feFuncA type="linear" slope="1" intercept="0"/></feComponentTransfer><feGaussianBlur stdDeviation="5.33333 5.33333"/></filter><clipPath id="clip5"><rect x="0" y="0" width="1280" height="720"/></clipPath><linearGradient x1="449.432" y1="-163.58" x2="830.568" y2="883.58" gradientUnits="userSpaceOnUse" spreadMethod="reflect" id="fill6"><stop offset="0" stop-color="#41BD95"/><stop offset="0.17" stop-color="#41BD95"/><stop offset="0.79"/><stop offset="1"/></linearGradient><clipPath id="clip7"><path d="M128 188 128 422 640 422 640 188ZM1.90735e-05 1.07288e-05 1280 1.07288e-05 1280 720 1.90735e-05 720Z" fill-rule="evenodd" clip-rule="evenodd"/></clipPath><linearGradient x1="219.71" y1="109.207" x2="548.29" y2="500.793" gradientUnits="userSpaceOnUse" spreadMethod="reflect" id="stroke8"><stop offset="0" stop-color="#FFFFFF"/><stop offset="0.42" stop-color="#404040"/><stop offset="1" stop-color="#404040"/></linearGradient><linearGradient x1="219.71" y1="383.207" x2="548.29" y2="774.793" gradientUnits="userSpaceOnUse" spreadMethod="reflect" id="stroke9"><stop offset="0" stop-color="#F6F8FC"/><stop offset="0.62"/><stop offset="1"/></linearGradient><clipPath id="clip10"><path d="M686 188 686 422 1198 422 1198 188ZM1.90735e-05 1.07288e-05 1280 1.07288e-05 1280 720 1.90735e-05 720Z" fill-rule="evenodd" clip-rule="evenodd"/></clipPath><linearGradient x1="777.71" y1="109.207" x2="1106.29" y2="500.793" gradientUnits="userSpaceOnUse" spreadMethod="reflect" id="stroke11"><stop offset="0" stop-color="#FFFFFF"/><stop offset="0.42" stop-color="#404040"/><stop offset="1" stop-color="#404040"/></linearGradient><clipPath id="clip12"><path d="M128 462 128 696 640 696 640 462ZM1.90735e-05 1.07288e-05 1280 1.07288e-05 1280 720 1.90735e-05 720Z" fill-rule="evenodd" clip-rule="evenodd"/></clipPath><linearGradient x1="219.71" y1="383.207" x2="548.29" y2="774.793" gradientUnits="userSpaceOnUse" spreadMethod="reflect" id="stroke13"><stop offset="0" stop-color="#FFFFFF"/><stop offset="0.42" stop-color="#404040"/><stop offset="1" stop-color="#404040"/></linearGradient><clipPath id="clip14"><path d="M686 462 686 696 1198 696 1198 462ZM1.90735e-05 1.07288e-05 1280 1.07288e-05 1280 720 1.90735e-05 720Z" fill-rule="evenodd" clip-rule="evenodd"/></clipPath><linearGradient x1="777.71" y1="383.207" x2="1106.29" y2="774.793" gradientUnits="userSpaceOnUse" spreadMethod="reflect" id="stroke15"><stop offset="0" stop-color="#FFFFFF"/><stop offset="0.42" stop-color="#404040"/><stop offset="1" stop-color="#404040"/></linearGradient><clipPath id="clip16"><path d="M236 12 236 166 1242 166 1242 12ZM1.90735e-05 1.07288e-05 1280 1.07288e-05 1280 720 1.90735e-05 720Z" fill-rule="evenodd" clip-rule="evenodd"/></clipPath><linearGradient x1="492.352" y1="-204.944" x2="985.648" y2="382.944" gradientUnits="userSpaceOnUse" spreadMethod="reflect" id="stroke17"><stop offset="0" stop-color="#FFFFFF"/><stop offset="0.46" stop-color="#404040"/><stop offset="1" stop-color="#404040"/></linearGradient></defs><g clip-path="url(#clip5)"><rect x="0" y="0" width="1280" height="720" fill="url(#fill6)"/><g clip-path="url(#clip7)"><g filter="url(#fx0)" transform="matrix(2 0 0 2 98 158)"><g><rect x="16.8856" y="16.8856" width="256" height="117" stroke="#FF0000" stroke-miterlimit="8" fill="#404040"/></g></g></g><rect x="128" y="188" width="512" height="234" stroke="url(#stroke8)" stroke-width="2" stroke-miterlimit="8" fill="#404040"/><rect x="128" y="462" width="512" height="234" stroke="url(#stroke9)" stroke-width="2" stroke-miterlimit="8" fill="#404040"/><g clip-path="url(#clip10)"><g filter="url(#fx1)" transform="matrix(2 0 0 2 656 158)"><g><rect x="16.8856" y="16.8856" width="256" height="117" stroke="#FF0000" stroke-miterlimit="8" fill="#404040"/></g></g></g><rect x="686" y="188" width="512" height="234" stroke="url(#stroke11)" stroke-width="2" stroke-miterlimit="8" fill="#404040"/><g clip-path="url(#clip12)"><g filter="url(#fx2)" transform="matrix(2 0 0 2 98 432)"><g><rect x="16.8856" y="16.8856" width="256" height="117" stroke="#FF0000" stroke-miterlimit="8" fill="#404040"/></g></g></g><rect x="128" y="462" width="512" height="234" stroke="url(#stroke13)" stroke-width="2" stroke-miterlimit="8" fill="#404040"/><g clip-path="url(#clip14)"><g filter="url(#fx3)" transform="matrix(2 0 0 2 656 432)"><g><rect x="16.8856" y="16.8856" width="256" height="117" stroke="#FF0000" stroke-miterlimit="8" fill="#404040"/></g></g></g><rect x="686" y="462" width="512" height="234" stroke="url(#stroke15)" stroke-width="2" stroke-miterlimit="8" fill="#404040"/><g clip-path="url(#clip16)"><g filter="url(#fx4)" transform="matrix(2 0 0 2 206 -18)"><g><rect x="16.8856" y="16.8856" width="503" height="77" stroke="#FF0000" stroke-miterlimit="8" fill="#404040"/></g></g></g><rect x="236" y="12" width="1006" height="154" stroke="url(#stroke17)" stroke-width="2" stroke-miterlimit="8" fill="#404040"/><path d="M103.5 179C103.5 169.335 111.335 161.5 121 161.5 130.665 161.5 138.5 169.335 138.5 179 138.5 188.665 130.665 196.5 121 196.5 111.335 196.5 103.5 188.665 103.5 179Z" stroke="#FFFFFF" stroke-width="1.33333" stroke-miterlimit="8" fill="#FFFFFF" fill-rule="evenodd"/><g><g><g><path d="M128.667 172.417C128.668 171.37 127.819 170.52 126.772 170.519 125.725 170.518 124.876 171.366 124.875 172.414 124.874 173.055 125.199 173.654 125.736 174.004L124.333 178.104 124.333 178.104C123.946 178.104 123.568 178.222 123.25 178.443L120.423 176.322C120.785 175.34 120.283 174.25 119.3 173.887 118.318 173.524 117.228 174.027 116.865 175.009 116.563 175.829 116.86 176.749 117.584 177.238L115.778 182.979 115.667 182.979C114.62 182.977 113.769 183.823 113.766 184.87 113.764 185.918 114.611 186.768 115.658 186.771 116.705 186.773 117.555 185.927 117.558 184.88 117.559 184.28 117.277 183.714 116.796 183.356L118.619 177.562 118.646 177.562C119.052 177.562 119.447 177.431 119.772 177.189L122.576 179.288C122.485 179.514 122.439 179.756 122.438 180 122.437 181.047 123.286 181.896 124.333 181.897 125.38 181.897 126.229 181.049 126.229 180.001 126.229 179.362 125.908 178.766 125.373 178.416L126.771 174.312C127.818 174.312 128.667 173.464 128.667 172.417Z"/><path d="M112.417 170.521 110.792 170.521 110.792 189.479 129.479 189.479 129.479 187.854 112.417 187.854 112.417 170.521Z"/></g></g></g><path d="M659.5 179C659.5 169.335 667.335 161.5 677 161.5 686.665 161.5 694.5 169.335 694.5 179 694.5 188.665 686.665 196.5 677 196.5 667.335 196.5 659.5 188.665 659.5 179Z" stroke="#FFFFFF" stroke-width="1.33333" stroke-miterlimit="8" fill="#FFFFFF" fill-rule="evenodd"/><path d="M664.5 450C664.5 440.335 672.559 432.5 682.5 432.5 692.441 432.5 700.5 440.335 700.5 450 700.5 459.665 692.441 467.5 682.5 467.5 672.559 467.5 664.5 459.665 664.5 450Z" stroke="#FFFFFF" stroke-width="1.33333" stroke-miterlimit="8" fill="#FFFFFF" fill-rule="evenodd"/><path d="M104.5 450C104.5 440.335 112.559 432.5 122.5 432.5 132.441 432.5 140.5 440.335 140.5 450 140.5 459.665 132.441 467.5 122.5 467.5 112.559 467.5 104.5 459.665 104.5 450Z" stroke="#FFFFFF" stroke-width="1.33333" stroke-miterlimit="8" fill="#FFFFFF" fill-rule="evenodd"/><g><g><g><path d="M686.125 172.562 686.125 184.938 666.875 184.938 666.875 172.562ZM663.438 186.312C663.438 186.692 663.745 187 664.125 187L674.623 187 669.34 192.283C669.071 192.552 669.071 192.988 669.34 193.256 669.608 193.525 670.044 193.525 670.312 193.256L675.812 187.756 675.812 193.875C675.812 194.255 676.12 194.562 676.5 194.562 676.88 194.562 677.188 194.255 677.188 193.875L677.188 187.767 682.688 193.267C682.956 193.538 683.394 193.54 683.665 193.272 683.937 193.003 683.939 192.565 683.671 192.294L678.377 187 688.875 187C689.255 187 689.562 186.692 689.562 186.312 689.562 185.933 689.255 185.625 688.875 185.625L688.188 185.625 688.188 171.531 688.875 171.531C689.255 171.531 689.562 171.223 689.562 170.844 689.562 170.464 689.255 170.156 688.875 170.156L677.188 170.156 677.188 169.469C677.188 169.089 676.88 168.781 676.5 168.781 676.12 168.781 675.812 169.089 675.812 169.469L675.812 170.156 664.125 170.156C663.745 170.156 663.438 170.464 663.438 170.844 663.438 171.223 663.745 171.531 664.125 171.531L664.812 171.531 664.812 185.625 664.125 185.625C663.745 185.625 663.438 185.933 663.438 186.312Z"/><path d="M671 173.938 673.75 173.938 673.75 183.562 671 183.562Z"/><path d="M675.125 177.031 677.875 177.031 677.875 183.562 675.125 183.562Z"/><path d="M679.25 179.438 682 179.438 682 183.562 679.25 183.562Z"/></g></g></g><g><g><g><path d="M5.34375 3.65625 3.65625 3.65625 3.65625 23.3438 23.0625 23.3438 23.0625 21.6562 5.34375 21.6562 5.34375 3.65625Z" transform="matrix(1.03704 0 0 1 108 436)"/><path d="M7.03125 3.65625 11.25 3.65625 11.25 19.9688 7.03125 19.9688Z" transform="matrix(1.03704 0 0 1 108 436)"/><path d="M12.9375 9.28125 17.1562 9.28125 17.1562 19.9688 12.9375 19.9688Z" transform="matrix(1.03704 0 0 1 108 436)"/><path d="M18.8438 14.3438 23.0625 14.3438 23.0625 19.9688 18.8438 19.9688Z" transform="matrix(1.03704 0 0 1 108 436)"/><path d="M21.2456 10.3275 14.4591 3.54094 13.6659 4.33406 20.4525 11.1206 18.9169 12.6562 22.7812 12.6562 22.7812 8.79187 21.2456 10.3275Z" transform="matrix(1.03704 0 0 1 108 436)"/></g></g></g><g><g><g><path d="M689.792 442.01C688.917 442.01 688.188 441.281 688.224 440.37 688.224 439.495 688.953 438.766 689.828 438.766 690.703 438.766 691.432 439.495 691.432 440.37 691.432 440.807 691.25 441.208 690.958 441.5 690.63 441.828 690.229 442.01 689.792 442.01ZM688.224 436.943C687.422 437.234 686.802 437.854 686.401 438.583 685.891 439.568 685.818 440.698 686.219 441.719L687.969 445.51 689.135 447.917C689.245 448.172 689.5 448.318 689.792 448.318 690.083 448.318 690.339 448.172 690.448 447.917L691.615 445.51 693.365 441.755C693.547 441.318 693.62 440.844 693.62 440.37 693.62 437.818 690.995 435.885 688.224 436.943Z"/><path d="M681.771 457.542 675.938 454.625 675.938 442.74 681.771 445.656 681.771 457.542ZM674.479 454.625 670.104 456.812 670.104 444.927 674.479 442.74 674.479 454.625ZM694.677 442.375 694.677 442.375 693.766 444.344 694.896 444.927 694.896 456.812 690.521 454.625 690.521 449.776 689.062 449.776 689.062 454.625 683.229 457.542 683.229 445.656 685.818 444.344 684.906 442.375 682.5 443.578 675.208 439.932 667.917 443.578 667.917 460.349 675.208 456.703 682.5 460.349 689.792 456.703 697.083 460.349 697.083 443.578 694.677 442.375Z"/></g></g></g><text fill="#FFFFFF" font-family="Calibri,Calibri_MSFontService,sans-serif" font-weight="400" font-size="26.6667" transform="matrix(-1.83697e-16 -1 1 -1.83697e-16 40.2778 599)">Performance tracking E</text><text fill="#FFFFFF" font-family="Calibri,Calibri_MSFontService,sans-serif" font-weight="400" font-size="26.6667" transform="matrix(-1.83697e-16 -1 1 -1.83697e-16 40.2778 347)">-</text><text fill="#FFFFFF" font-family="Calibri,Calibri_MSFontService,sans-serif" font-weight="400" font-size="26.6667" transform="matrix(-1.83697e-16 -1 1 -1.83697e-16 40.2778 339)">commerce</text><text fill="#FFFFFF" font-family="Calibri,Calibri_MSFontService,sans-serif" font-weight="400" font-size="26.6667" transform="matrix(-1.83697e-16 -1 1 -1.83697e-16 72.2778 599)">2018</text><text fill="#FFFFFF" font-family="Calibri,Calibri_MSFontService,sans-serif" font-weight="400" font-size="26.6667" transform="matrix(-1.83697e-16 -1 1 -1.83697e-16 72.2778 545)">-</text><text fill="#FFFFFF" font-family="Calibri,Calibri_MSFontService,sans-serif" font-weight="400" font-size="26.6667" transform="matrix(-1.83697e-16 -1 1 -1.83697e-16 72.2778 536)">2019</text></g></svg>