<svg width="1280" height="720" xmlns="http://www.w3.org/2000/svg" xmlns:xlink="http://www.w3.org/1999/xlink" overflow="hidden"><defs><filter id="fx0" x="-10%" y="-10%" width="120%" height="120%" filterUnits="userSpaceOnUse" primitiveUnits="userSpaceOnUse"><feComponentTransfer color-interpolation-filters="sRGB"><feFuncR type="discrete" tableValues="0 0"/><feFuncG type="discrete" tableValues="0 0"/><feFuncB type="discrete" tableValues="0 0"/><feFuncA type="linear" slope="1" intercept="0"/></feComponentTransfer><feGaussianBlur stdDeviation="5.34925 5.33333"/></filter><filter id="fx1" x="-10%" y="-10%" width="120%" height="120%" filterUnits="userSpaceOnUse" primitiveUnits="userSpaceOnUse"><feComponentTransfer color-interpolation-filters="sRGB"><feFuncR type="discrete" tableValues="0 0"/><feFuncG type="discrete" tableValues="0 0"/><feFuncB type="discrete" tableValues="0 0"/><feFuncA type="linear" slope="1" intercept="0"/></feComponentTransfer><feGaussianBlur stdDeviation="5.33333 5.33333"/></filter><filter id="fx2" x="-10%" y="-10%" width="120%" height="120%" filterUnits="userSpaceOnUse" primitiveUnits="userSpaceOnUse"><feComponentTransfer color-interpolation-filters="sRGB"><feFuncR type="discrete" tableValues="0 0"/><feFuncG type="discrete" tableValues="0 0"/><feFuncB type="discrete" tableValues="0 0"/><feFuncA type="linear" slope="1" intercept="0"/></feComponentTransfer><feGaussianBlur stdDeviation="5.33333 5.33333"/></filter><filter id="fx3" x="-10%" y="-10%" width="120%" height="120%" filterUnits="userSpaceOnUse" primitiveUnits="userSpaceOnUse"><feComponentTransfer color-interpolation-filters="sRGB"><feFuncR type="discrete" tableValues="0 0"/><feFuncG type="discrete" tableValues="0 0"/><feFuncB type="discrete" tableValues="0 0"/><feFuncA type="linear" slope="1" intercept="0"/></feComponentTransfer><feGaussianBlur stdDeviation="5.34794 5.33333"/></filter><filter id="fx4" x="-10%" y="-10%" width="120%" height="120%" filterUnits="userSpaceOnUse" primitiveUnits="userSpaceOnUse"><feComponentTransfer color-interpolation-filters="sRGB"><feFuncR type="discrete" tableValues="0 0"/><feFuncG type="discrete" tableValues="0 0"/><feFuncB type="discrete" tableValues="0 0"/><feFuncA type="linear" slope="1" intercept="0"/></feComponentTransfer><feGaussianBlur stdDeviation="5.33333 5.33333"/></filter><filter id="fx5" x="-10%" y="-10%" width="120%" height="120%" filterUnits="userSpaceOnUse" primitiveUnits="userSpaceOnUse"><feComponentTransfer color-interpolation-filters="sRGB"><feFuncR type="discrete" tableValues="0 0"/><feFuncG type="discrete" tableValues="0 0"/><feFuncB type="discrete" tableValues="0 0"/><feFuncA type="linear" slope="1" intercept="0"/></feComponentTransfer><feGaussianBlur stdDeviation="5.34316 5.34888"/></filter><filter id="fx6" x="-10%" y="-10%" width="120%" height="120%" filterUnits="userSpaceOnUse" primitiveUnits="userSpaceOnUse"><feComponentTransfer color-interpolation-filters="sRGB"><feFuncR type="discrete" tableValues="0 0"/><feFuncG type="discrete" tableValues="0 0"/><feFuncB type="discrete" tableValues="0 0"/><feFuncA type="linear" slope="1" intercept="0"/></feComponentTransfer><feGaussianBlur stdDeviation="5.33333 5.34888"/></filter><filter id="fx7" x="-10%" y="-10%" width="120%" height="120%" filterUnits="userSpaceOnUse" primitiveUnits="userSpaceOnUse"><feComponentTransfer color-interpolation-filters="sRGB"><feFuncR type="discrete" tableValues="0 0"/><feFuncG type="discrete" tableValues="0 0"/><feFuncB type="discrete" tableValues="0 0"/><feFuncA type="linear" slope="1" intercept="0"/></feComponentTransfer><feGaussianBlur stdDeviation="5.33333 5.34888"/></filter><filter id="fx8" x="-10%" y="-10%" width="120%" height="120%" filterUnits="userSpaceOnUse" primitiveUnits="userSpaceOnUse"><feComponentTransfer color-interpolation-filters="sRGB"><feFuncR type="discrete" tableValues="0 0"/><feFuncG type="discrete" tableValues="0 0"/><feFuncB type="discrete" tableValues="0 0"/><feFuncA type="linear" slope="1" intercept="0"/></feComponentTransfer><feGaussianBlur stdDeviation="5.33333 5.33333"/></filter><clipPath id="clip9"><rect x="0" y="0" width="1280" height="720"/></clipPath><linearGradient x1="332.344" y1="-186.944" x2="947.656" y2="906.944" gradientUnits="userSpaceOnUse" spreadMethod="reflect" id="fill10"><stop offset="0" stop-color="#0070C0"/><stop offset="0.23" stop-color="#0070C0"/><stop offset="0.72"/><stop offset="1"/></linearGradient><clipPath id="clip11"><path d="M353 10 353 92 620 92 620 10ZM1.90735e-05 1.07288e-05 1280 1.07288e-05 1280 720 1.90735e-05 720Z" fill-rule="evenodd" clip-rule="evenodd"/></clipPath><clipPath id="clip12"><rect x="0" y="0" width="168" height="75"/></clipPath><linearGradient x1="410.247" y1="-39.8749" x2="562.753" y2="141.875" gradientUnits="userSpaceOnUse" spreadMethod="reflect" id="stroke13"><stop offset="0" stop-color="#FFFFFF"/><stop offset="0.42" stop-color="#404040"/><stop offset="1" stop-color="#404040"/></linearGradient><clipPath id="clip14"><path d="M659 10 659 92 927 92 927 10ZM1.90735e-05 1.07288e-05 1280 1.07288e-05 1280 720 1.90735e-05 720Z" fill-rule="evenodd" clip-rule="evenodd"/></clipPath><linearGradient x1="716.54" y1="-40.1211" x2="869.46" y2="142.121" gradientUnits="userSpaceOnUse" spreadMethod="reflect" id="stroke15"><stop offset="0" stop-color="#FFFFFF"/><stop offset="0.42" stop-color="#404040"/><stop offset="1" stop-color="#404040"/></linearGradient><clipPath id="clip16"><path d="M965 10 965 92 1233 92 1233 10ZM1.90735e-05 1.07288e-05 1280 1.07288e-05 1280 720 1.90735e-05 720Z" fill-rule="evenodd" clip-rule="evenodd"/></clipPath><linearGradient x1="1022.54" y1="-40.1211" x2="1175.46" y2="142.121" gradientUnits="userSpaceOnUse" spreadMethod="reflect" id="stroke17"><stop offset="0" stop-color="#FFFFFF"/><stop offset="0.42" stop-color="#404040"/><stop offset="1" stop-color="#404040"/></linearGradient><clipPath id="clip18"><path d="M338 110 338 404 635 404 635 110ZM1.90735e-05 1.07288e-05 1280 1.07288e-05 1280 720 1.90735e-05 720Z" fill-rule="evenodd" clip-rule="evenodd"/></clipPath><clipPath id="clip19"><rect x="0" y="0" width="183" height="181"/></clipPath><linearGradient x1="351.854" y1="96.5357" x2="621.146" y2="417.464" gradientUnits="userSpaceOnUse" spreadMethod="reflect" id="stroke20"><stop offset="0" stop-color="#FFFFFF"/><stop offset="0.42" stop-color="#404040"/><stop offset="1" stop-color="#404040"/></linearGradient><clipPath id="clip21"><path d="M666 110 666 404 1262 404 1262 110ZM1.90735e-05 1.07288e-05 1280 1.07288e-05 1280 720 1.90735e-05 720Z" fill-rule="evenodd" clip-rule="evenodd"/></clipPath><linearGradient x1="767.585" y1="22.9213" x2="1160.42" y2="491.079" gradientUnits="userSpaceOnUse" spreadMethod="reflect" id="stroke22"><stop offset="0" stop-color="#FFFFFF"/><stop offset="0.42" stop-color="#404040"/><stop offset="1" stop-color="#404040"/></linearGradient><clipPath id="clip23"><path d="M787 421 787 696 1262 696 1262 421ZM1.90735e-05 1.07288e-05 1280 1.07288e-05 1280 720 1.90735e-05 720Z" fill-rule="evenodd" clip-rule="evenodd"/></clipPath><clipPath id="clip24"><rect x="0" y="0" width="272" height="172"/></clipPath><linearGradient x1="857.76" y1="359.787" x2="1191.24" y2="757.213" gradientUnits="userSpaceOnUse" spreadMethod="reflect" id="stroke25"><stop offset="0" stop-color="#FFFFFF"/><stop offset="0.42" stop-color="#404040"/><stop offset="1" stop-color="#404040"/></linearGradient><clipPath id="clip26"><path d="M437 421 437 696 749 696 749 421ZM1.90735e-05 1.07288e-05 1280 1.07288e-05 1280 720 1.90735e-05 720Z" fill-rule="evenodd" clip-rule="evenodd"/></clipPath><linearGradient x1="459.933" y1="399.917" x2="726.067" y2="717.083" gradientUnits="userSpaceOnUse" spreadMethod="reflect" id="stroke27"><stop offset="0" stop-color="#FFFFFF"/><stop offset="0.42" stop-color="#404040"/><stop offset="1" stop-color="#404040"/></linearGradient><clipPath id="clip28"><path d="M87 421 87 696 399 696 399 421ZM1.90735e-05 1.07288e-05 1280 1.07288e-05 1280 720 1.90735e-05 720Z" fill-rule="evenodd" clip-rule="evenodd"/></clipPath><linearGradient x1="109.933" y1="399.917" x2="376.067" y2="717.083" gradientUnits="userSpaceOnUse" spreadMethod="reflect" id="stroke29"><stop offset="0" stop-color="#FFFFFF"/><stop offset="0.42" stop-color="#404040"/><stop offset="1" stop-color="#404040"/></linearGradient><clipPath id="clip30"><path d="M103 132 103 370 319 370 319 132ZM1.90735e-05 1.07288e-05 1280 1.07288e-05 1280 720 1.90735e-05 720Z" fill-rule="evenodd" clip-rule="evenodd"/></clipPath><linearGradient x1="106.875" y1="126.909" x2="315.125" y2="375.091" gradientUnits="userSpaceOnUse" spreadMethod="reflect" id="stroke31"><stop offset="0" stop-color="#FFFFFF"/><stop offset="0.42" stop-color="#404040"/><stop offset="1" stop-color="#404040"/></linearGradient></defs><g clip-path="url(#clip9)"><rect x="0" y="0" width="1280" height="720" fill="url(#fill10)"/><g clip-path="url(#clip11)"><g filter="url(#fx0)" transform="matrix(1.99405 0 0 2 323 -20)"><g clip-path="url(#clip12)"><rect x="16.936" y="16.8856" width="133.899" height="41" stroke="#FF0000" stroke-miterlimit="8" fill="#404040"/></g></g></g><rect x="353" y="10" width="267" height="82" stroke="url(#stroke13)" stroke-width="2" stroke-miterlimit="8" fill="#404040"/><g clip-path="url(#clip14)"><g filter="url(#fx1)" transform="matrix(2 0 0 2 629 -20)"><g><rect x="16.8856" y="16.8856" width="134" height="41" stroke="#FF0000" stroke-miterlimit="8" fill="#404040"/></g></g></g><rect x="659" y="10" width="268" height="82" stroke="url(#stroke15)" stroke-width="2" stroke-miterlimit="8" fill="#404040"/><g clip-path="url(#clip16)"><g filter="url(#fx2)" transform="matrix(2 0 0 2 935 -20)"><g><rect x="16.8856" y="16.8856" width="134" height="41" stroke="#FF0000" stroke-miterlimit="8" fill="#404040"/></g></g></g><rect x="965" y="10" width="268" height="82" stroke="url(#stroke17)" stroke-width="2" stroke-miterlimit="8" fill="#404040"/><g clip-path="url(#clip18)"><g filter="url(#fx3)" transform="matrix(1.99454 0 0 2 308 80)"><g clip-path="url(#clip19)" transform="translate(2.84217e-14 0)"><rect x="16.9319" y="16.8856" width="148.907" height="147" stroke="#FF0000" stroke-miterlimit="8" fill="#404040"/></g></g></g><rect x="338" y="110" width="297" height="294" stroke="url(#stroke20)" stroke-width="2" stroke-miterlimit="8" fill="#404040"/><g clip-path="url(#clip21)"><g filter="url(#fx4)" transform="matrix(2 0 0 2 636 80)"><g><rect x="16.8856" y="16.8856" width="298" height="147" stroke="#FF0000" stroke-miterlimit="8" fill="#404040"/></g></g></g><rect x="666" y="110" width="596" height="294" stroke="url(#stroke22)" stroke-width="2" stroke-miterlimit="8" fill="#404040"/><g clip-path="url(#clip23)"><g filter="url(#fx5)" transform="matrix(1.99632 0 0 1.99419 757 391)"><g clip-path="url(#clip24)" transform="translate(5.68434e-14 0)"><rect x="16.9167" y="16.9348" width="237.937" height="137.901" stroke="#FF0000" stroke-miterlimit="8" fill="#404040"/></g></g></g><rect x="787" y="421" width="475" height="275" stroke="url(#stroke25)" stroke-width="2" stroke-miterlimit="8" fill="#404040"/><g clip-path="url(#clip26)"><g filter="url(#fx6)" transform="matrix(2 0 0 1.99419 407 391)"><g><rect x="16.8856" y="16.9349" width="156" height="137.901" stroke="#FF0000" stroke-miterlimit="8" fill="#404040"/></g></g></g><rect x="437" y="421" width="312" height="275" stroke="url(#stroke27)" stroke-width="2" stroke-miterlimit="8" fill="#404040"/><g clip-path="url(#clip28)"><g filter="url(#fx7)" transform="matrix(2 0 0 1.99419 57 391)"><g><rect x="16.8856" y="16.9349" width="156" height="137.901" stroke="#FF0000" stroke-miterlimit="8" fill="#404040"/></g></g></g><rect x="87" y="421" width="312" height="275" stroke="url(#stroke29)" stroke-width="2" stroke-miterlimit="8" fill="#404040"/><text fill="#FFFFFF" font-family="Calibri,Calibri_MSFontService,sans-serif" font-weight="400" font-size="26.6667" transform="matrix(-1.83697e-16 -1 1 -1.83697e-16 35.6023 644)">Product and category performance analysis</text><text fill="#FFFFFF" font-family="Calibri,Calibri_MSFontService,sans-serif" font-weight="400" font-size="26.6667" transform="matrix(-1.83697e-16 -1 1 -1.83697e-16 67.6023 644)">2018</text><text fill="#FFFFFF" font-family="Calibri,Calibri_MSFontService,sans-serif" font-weight="400" font-size="26.6667" transform="matrix(-1.83697e-16 -1 1 -1.83697e-16 67.6023 590)">-</text><text fill="#FFFFFF" font-family="Calibri,Calibri_MSFontService,sans-serif" font-weight="400" font-size="26.6667" transform="matrix(-1.83697e-16 -1 1 -1.83697e-16 67.6023 582)">2019</text><path d="M43.5003 147 74 147 74 629.5C74 646.345 60.3446 660.001 43.4997 660.001L13 660 13 177.5C13 160.655 26.6554 147 43.5003 147Z" fill="#FFFFFF" fill-rule="evenodd" fill-opacity="0.45098"/><g clip-path="url(#clip30)"><g filter="url(#fx8)" transform="matrix(2 0 0 2 73 102)"><g><rect x="16.8856" y="16.8856" width="108" height="119" stroke="#FF0000" stroke-miterlimit="8" fill="#404040"/></g></g></g><rect x="103" y="132" width="216" height="238" stroke="url(#stroke31)" stroke-width="2" stroke-miterlimit="8" fill="#404040"/><text fill="#FEBB05" font-family="Calibri,Calibri_MSFontService,sans-serif" font-style="italic" font-weight="700" font-size="16" transform="translate(117.073 152)">TOP PROFIT SUB</text><text fill="#FEBB05" font-family="Calibri,Calibri_MSFontService,sans-serif" font-style="italic" font-weight="700" font-size="16" transform="translate(225.98 152)">-</text><text fill="#FEBB05" font-family="Calibri,Calibri_MSFontService,sans-serif" font-style="italic" font-weight="700" font-size="16" transform="translate(230.813 152)">CATEGORY</text><text fill="#FFFFFF" font-family="Calibri,Calibri_MSFontService,sans-serif" font-weight="700" font-size="17.3333" transform="translate(671.316 29)">TOP QUANTITY SUB</text><text fill="#FFFFFF" font-family="Calibri,Calibri_MSFontService,sans-serif" font-weight="700" font-size="17.3333" transform="translate(812.716 29)">-</text><text fill="#FFFFFF" font-family="Calibri,Calibri_MSFontService,sans-serif" font-weight="700" font-size="17.3333" transform="translate(818.05 29)">CATEGORY</text><text fill="#FFFFFF" font-family="Calibri,Calibri_MSFontService,sans-serif" font-weight="700" font-size="17.3333" transform="translate(977.028 29)">TOP MARGE SUB</text><text fill="#FFFFFF" font-family="Calibri,Calibri_MSFontService,sans-serif" font-weight="700" font-size="17.3333" transform="translate(1097.93 29)">-</text><text fill="#FFFFFF" font-family="Calibri,Calibri_MSFontService,sans-serif" font-weight="700" font-size="17.3333" transform="translate(1103.26 29)">CATEGORY</text><text fill="#FFFFFF" font-family="Calibri,Calibri_MSFontService,sans-serif" font-weight="700" font-size="17.3333" transform="translate(366.129 29)">TOP QUANTITY SUB</text><text fill="#FFFFFF" font-family="Calibri,Calibri_MSFontService,sans-serif" font-weight="700" font-size="17.3333" transform="translate(507.529 29)">-</text><text fill="#FFFFFF" font-family="Calibri,Calibri_MSFontService,sans-serif" font-weight="700" font-size="17.3333" transform="translate(512.862 29)">CATEGORY</text><g><g><g><path d="M161.194 57.8438C158.496 60.6187 155.952 62.3917 150.402 63.0083 151.867 61.5437 153.562 60.0792 155.027 58.3062 155.644 57.6125 156.8 56.0708 156.8 55.9937 158.11 53.8354 158.881 51.3687 158.881 48.6708L158.881 38.65 164.277 38.65 164.277 50.3667C164.354 50.5208 164.508 54.375 161.194 57.8438ZM122.883 57.8438C119.492 54.375 119.646 50.5208 119.646 50.3667L119.646 38.5729 125.042 38.5729 125.042 48.5938C125.042 51.2917 125.812 53.7583 127.123 55.9167 127.123 55.9937 128.279 57.6125 128.896 58.2292 130.438 60.0021 132.056 61.4667 133.521 62.9312 128.125 62.3146 125.504 60.5417 122.883 57.8438ZM168.979 50.1354 168.979 33.9479 158.958 33.9479 158.958 28.5521 142 28.5521 125.042 28.5521 125.042 33.9479 115.021 33.9479 115.021 50.0583C115.021 50.8292 115.021 56.1479 119.415 60.85 123.654 65.3208 128.819 67.6333 137.837 67.7875 138.531 68.9437 138.917 70.2542 138.917 71.6417L138.917 81.6625 135.062 81.6625C133.367 81.6625 131.979 83.05 131.979 84.7458L128.125 84.7458C126.429 84.7458 125.042 86.1333 125.042 87.8292L125.042 89.3708 158.958 89.3708 158.958 87.8292C158.958 86.1333 157.571 84.7458 155.875 84.7458L152.021 84.7458C152.021 83.05 150.633 81.6625 148.938 81.6625L145.083 81.6625 145.083 71.7188C145.083 70.3313 145.469 69.0208 146.163 67.8646 155.181 67.7104 160.346 65.3208 164.585 60.9271 168.979 56.3021 168.979 50.9062 168.979 50.1354Z" fill="#FEBB05"/></g></g></g><text fill="#FFFFFF" font-family="Calibri,Calibri_MSFontService,sans-serif" font-weight="700" font-size="24" transform="translate(136.303 52)">1</text><rect x="111.5" y="161.5" width="199" height="203" stroke="#0070C0" stroke-width="2.66667" stroke-miterlimit="8" stroke-dasharray="2.66667 2.66667" fill="none"/><text fill="#FFFFFF" font-family="Calibri,Calibri_MSFontService,sans-serif" font-weight="700" font-size="17.3333" transform="translate(133.231 236)">Profit trend for 2018</text><path d="M487 42 487 75.5431" stroke="#FFFFFF" stroke-width="2" stroke-miterlimit="8" fill="none" fill-rule="evenodd"/><path d="M793 40 793 73.5431" stroke="#FFFFFF" stroke-width="2" stroke-miterlimit="8" fill="none" fill-rule="evenodd"/><path d="M1099 40 1099 73.5431" stroke="#FFFFFF" stroke-width="2" stroke-miterlimit="8" fill="none" fill-rule="evenodd"/><text fill="#FFFFFF" font-family="Calibri,Calibri_MSFontService,sans-serif" font-weight="700" font-size="16" transform="translate(369.178 130)">Sales, Profit &amp; Quantity by Category</text><text fill="#FFFFFF" font-family="Calibri,Calibri_MSFontService,sans-serif" font-weight="700" font-size="16" transform="translate(711.695 130)">Profit Distribution &amp; Cumulative % by Sub</text><text fill="#FFFFFF" font-family="Calibri,Calibri_MSFontService,sans-serif" font-weight="700" font-size="16" transform="translate(989.775 130)">-</text><text fill="#FFFFFF" font-family="Calibri,Calibri_MSFontService,sans-serif" font-weight="700" font-size="16" transform="translate(994.608 130)">Category</text><text fill="#FFFFFF" font-family="Calibri,Calibri_MSFontService,sans-serif" font-weight="700" font-size="16" transform="translate(1057.19 130)">–</text><text fill="#FFFFFF" font-family="Calibri,Calibri_MSFontService,sans-serif" font-weight="700" font-size="16" transform="translate(1068.85 130)">PARETO ANALYSIS</text><text fill="#FFFFFF" font-family="Calibri,Calibri_MSFontService,sans-serif" font-weight="700" font-size="16" transform="translate(152.989 440)">Monthly Profit by Category</text><text fill="#FFFFFF" font-family="Calibri,Calibri_MSFontService,sans-serif" font-weight="700" font-size="16" transform="translate(470.438 441)">Profit vs Quantity by Sub</text><text fill="#FFFFFF" font-family="Calibri,Calibri_MSFontService,sans-serif" font-weight="700" font-size="16" transform="translate(635.464 441)">-</text><text fill="#FFFFFF" font-family="Calibri,Calibri_MSFontService,sans-serif" font-weight="700" font-size="16" transform="translate(640.298 441)">Category</text><text fill="#FFFFFF" font-family="Calibri,Calibri_MSFontService,sans-serif" font-weight="700" font-size="16" transform="translate(837.186 441)">Quantity Breakdown by Category and Sub</text><text fill="#FFFFFF" font-family="Calibri,Calibri_MSFontService,sans-serif" font-weight="700" font-size="16" transform="translate(1114.63 441)">-</text><text fill="#FFFFFF" font-family="Calibri,Calibri_MSFontService,sans-serif" font-weight="700" font-size="16" transform="translate(1119.46 441)">Category</text><path d="M195.954 43 308 43 308 65.0457C308 73.857 300.857 81 292.046 81L180 81 180 58.9543C180 50.143 187.143 43 195.954 43Z" fill="#FEBB05" fill-rule="evenodd" fill-opacity="0.74902"/><text fill="#FFFFFF" font-family="Calibri,Calibri_MSFontService,sans-serif" font-weight="700" font-size="24" transform="translate(196.323 70)">WINNERS</text></g></svg>